<?xml version="1.0" encoding="UTF-8" standalone="no"?>
<!-- Created with Inkscape (http://www.inkscape.org/) -->

<svg
   xmlns:osb="http://www.openswatchbook.org/uri/2009/osb"
   xmlns:dc="http://purl.org/dc/elements/1.1/"
   xmlns:cc="http://creativecommons.org/ns#"
   xmlns:rdf="http://www.w3.org/1999/02/22-rdf-syntax-ns#"
   xmlns:svg="http://www.w3.org/2000/svg"
   xmlns="http://www.w3.org/2000/svg"
   xmlns:sodipodi="http://sodipodi.sourceforge.net/DTD/sodipodi-0.dtd"
   xmlns:inkscape="http://www.inkscape.org/namespaces/inkscape"
   width="240mm"
   height="120mm"
   viewBox="0 0 240 120"
   version="1.1"
   id="svg8"
   inkscape:version="0.92.3 (2405546, 2018-03-11)"
   sodipodi:docname="xonextwograph.svg">
  <defs
     id="defs2">
    <linearGradient
       id="linearGradient4550"
       osb:paint="solid">
      <stop
         style="stop-color:#000000;stop-opacity:1;"
         offset="0"
         id="stop4548" />
    </linearGradient>
    <linearGradient
       id="linearGradient4520"
       osb:paint="solid">
      <stop
         style="stop-color:#000000;stop-opacity:1;"
         offset="0"
         id="stop4518" />
    </linearGradient>
  </defs>
  <sodipodi:namedview
     id="base"
     pagecolor="#ffffff"
     bordercolor="#666666"
     borderopacity="1.0"
     inkscape:pageopacity="0.0"
     inkscape:pageshadow="2"
     inkscape:zoom="0.99437388"
     inkscape:cx="129.12909"
     inkscape:cy="182.72055"
     inkscape:document-units="mm"
     inkscape:current-layer="layer1"
     showgrid="false"
     showborder="true"
     width="200mm"
     showguides="true"
     inkscape:guide-bbox="true"
     inkscape:window-width="1853"
     inkscape:window-height="1052"
     inkscape:window-x="67"
     inkscape:window-y="0"
     inkscape:window-maximized="1">
    <inkscape:grid
       type="xygrid"
       id="grid815"
       units="mm"
       spacingx="10"
       spacingy="10"
       empspacing="4"
       dotted="false" />
  </sodipodi:namedview>
  <metadata
     id="metadata5">
    <rdf:RDF>
      <cc:Work
         rdf:about="">
        <dc:format>image/svg+xml</dc:format>
        <dc:type
           rdf:resource="http://purl.org/dc/dcmitype/StillImage" />
        <dc:title />
      </cc:Work>
    </rdf:RDF>
  </metadata>
  <g
     inkscape:label="Layer 1"
     inkscape:groupmode="layer"
     id="layer1"
     transform="translate(0,-177)">
    <path
       style="opacity:0.47999998;fill:#000000;fill-opacity:1;stroke-width:0.26458332"
       id="path5998"
       d="m 78.512301,257.69519 c -0.910164,-0.79969 -1.824979,-1.59327 -2.722684,-2.40834 -1.06262,-0.93559 -1.833581,-2.10668 -2.534859,-3.32149 -0.606997,-1.08498 -0.975175,-2.24894 -1.157446,-3.47264 -0.139833,-1.53629 -0.116877,-3.08215 -0.118449,-4.62328 0.02471,-1.34003 -0.08178,-2.68553 0.07961,-4.01901 0.09676,-0.79455 0.419004,-1.52956 0.822465,-2.21247 0.355536,-0.49375 0.708792,-0.98311 0.989195,-1.52399 0.199641,-0.35282 0.36476,-0.70478 0.430956,-1.10556 0.08053,-0.87806 0.06585,-1.76264 0.06725,-2.64365 -0.0042,-1.11844 -0.333121,-2.1895 -0.698206,-3.23498 -0.483632,-1.04023 -0.686496,-2.14941 -0.798344,-3.28148 -0.106672,-1.29719 -0.09565,-2.5997 -0.107074,-3.9001 -0.03076,-1.14833 -0.07078,-2.06994 0.342022,-3.15983 0.562351,-1.11812 1.5084,-1.94875 2.46412,-2.72486 2.256203,-1.67051 4.70463,-3.07667 7.205723,-4.34544 1.596618,-0.81463 3.31351,-1.34864 5.034828,-1.82862 1.491461,-0.38887 2.975856,-0.80437 4.420057,-1.34489 1.110756,-0.43189 2.261876,-0.7394 3.394239,-1.10441 0.935977,-0.22975 1.82381,-0.60446 2.653904,-1.08978 -5.590659,3.36629 -2.593354,1.63081 -1.46611,0.43131 0.692566,-0.78997 1.268143,-1.66992 1.919846,-2.49205 0.64624,-0.81377 1.349056,-1.57503 2.106116,-2.28601 1.99989,-1.67474 4.37589,-2.8716 6.62008,-4.15742 1.02544,-0.52057 2.0504,-1.02805 3.14407,-1.38919 0.90941,-0.33223 1.85595,-0.57639 2.80929,-0.7458 0.97556,-0.14242 1.96362,-0.15926 2.94771,-0.17334 0.83515,0.0307 1.68889,-0.10252 2.50797,0.084 0.71284,0.22713 1.28477,0.71105 1.84449,1.18757 0.38707,0.29011 0.48268,0.66149 0.51055,1.12178 -0.008,1.32971 -0.0256,2.65936 -0.028,3.98914 -0.0513,1.03467 0.0856,2.04688 0.31886,3.04996 0.17241,0.61125 0.33725,1.20787 0.40885,1.84143 0.12324,1.11036 0.25658,2.21812 0.43173,3.32167 0.19649,1.08765 0.51978,2.14335 1.14958,3.05766 0.989,1.08303 2.4032,1.53457 3.73664,2.03646 1.80317,0.64432 3.6665,1.09825 5.49516,1.66444 1.57333,0.45288 2.6222,1.03318 3.84234,2.11012 1.18211,1.14845 2.19744,2.44529 3.11899,3.80737 0.68494,1.0234 1.2118,2.13949 1.51735,3.33171 0.24291,1.06363 0.21309,2.16133 0.21871,3.24516 8e-4,1.07472 0.003,2.14944 0.006,3.22415 0.0613,0.81956 -0.13987,1.56361 -0.53344,2.27341 -0.57352,0.86763 -1.39378,1.52429 -2.22591,2.12955 -1.86522,1.26055 -3.8506,2.35255 -5.82525,3.42288 -0.26132,0.14164 -1.22049,0.477 -1.49504,0.57639 -1.32462,0.44109 -2.68518,0.74772 -4.04092,1.07186 -0.19383,0.0443 -0.38842,0.0854 -0.58148,0.13287 -0.54121,0.13321 -0.53811,0.12347 -1.03319,0.35432 -0.15889,0.0741 -0.62123,0.3248 -0.46977,0.23652 3.36738,-1.96267 3.70871,-2.2268 2.37553,-1.28719 -1.12383,0.89385 -1.84761,2.11823 -2.52503,3.35763 -0.71136,1.36371 -1.1642,2.83755 -1.56697,4.31583 -0.28812,1.07879 -0.38908,2.18986 -0.43676,3.30125 -0.0656,0.98297 -0.15887,1.96314 -0.36311,2.92763 -0.27511,1.1044 -0.6193,2.18768 -0.96444,3.27141 -0.26457,0.97292 -0.73887,1.84559 -1.29971,2.67438 -0.59437,0.85481 -1.3169,1.60119 -2.10024,2.28205 -1.91394,1.49448 -4.08419,2.54057 -6.34581,3.34318 -1.18988,0.41468 -2.44859,0.47272 -3.69533,0.52024 -1.35067,0.0369 -2.70214,0.0366 -4.05322,0.0334 -1.17558,0.0178 -2.35546,-0.0318 -3.51779,-0.21418 -0.833449,-0.0728 -1.58113,-0.34654 -2.307747,-0.7456 -0.868307,-0.4869 -1.594358,-1.18356 -2.330799,-1.84483 -0.777084,-0.72451 -1.614321,-1.38012 -2.478873,-1.99619 -0.75805,-0.48175 -1.550355,-0.90597 -2.388111,-1.23044 -0.6624,-0.25594 -1.331963,-0.46357 -2.037085,-0.55377 -0.813192,-0.0712 -1.63077,-0.069 -2.446425,-0.0695 -0.827754,0.002 -1.655553,10e-4 -2.483284,0.008 -0.599652,0.0362 -1.163645,-0.12856 -1.685123,-0.41177 -0.452496,-0.22296 -0.897017,-0.45145 -1.36462,-0.64267 -0.632767,-0.27643 -1.162654,-0.72109 -1.675416,-1.17362 -0.524391,-0.54938 -1.013053,-1.1323 -1.47868,-1.73175 -0.334012,-0.33308 -0.583213,-0.73608 -0.874927,-1.10218 -0.128285,-0.14756 -0.189436,-0.3526 -0.340902,-0.47779 0,0 3.391982,-2.06338 3.391982,-2.06338 v 0 c 0.133771,0.16215 0.227939,0.34633 0.34992,0.5177 0.279304,0.37564 0.540345,0.7658 0.857395,1.11294 0.441825,0.58465 0.902171,1.15868 1.430441,1.66846 0.493278,0.42214 1.006522,0.82516 1.618213,1.06287 0.46846,0.20455 0.927764,0.42563 1.383445,0.65712 0.500078,0.21767 1.016778,0.30843 1.564799,0.27527 0.825251,0.004 1.650521,-0.003 2.475783,5.2e-4 0.831802,0.006 1.667441,5.3e-4 2.493862,0.10801 0.715639,0.12984 1.402085,0.36264 2.074531,0.63864 0.84858,0.36145 1.666754,0.79269 2.428396,1.31491 0.868156,0.63088 1.705108,1.30397 2.49206,2.03445 0.725965,0.63433 1.439205,1.30675 2.304345,1.74977 0.70138,0.35048 1.43474,0.56079 2.21664,0.64633 1.14999,0.14948 2.30715,0.2103 3.46693,0.18308 1.34466,10e-4 2.68995,0.0126 4.03384,-0.0428 1.23522,-0.0701 2.47391,-0.17811 3.64066,-0.62421 0.55165,-0.20221 1.09659,-0.40706 1.62635,-0.66277 0.1673,-0.0807 0.65598,-0.34839 0.49659,-0.25296 -0.95646,0.5726 -1.92582,1.12338 -2.88873,1.68507 0.14282,-0.0862 0.28563,-0.17248 0.42845,-0.25872 0.79948,-0.63957 1.52881,-1.35652 2.13575,-2.18479 0.5741,-0.79261 1.08761,-1.62785 1.36773,-2.57452 0.33419,-1.07295 0.68913,-2.13797 0.95338,-3.23154 0.23247,-0.94176 0.33281,-1.90044 0.40413,-2.86673 0.0399,-1.14301 0.14162,-2.28453 0.42975,-3.39561 0.40516,-1.501 0.85926,-3.00034 1.5421,-4.40149 0.66805,-1.26404 1.35176,-2.52715 2.43238,-3.49628 1.85531,-1.54504 4.03679,-2.7527 6.40282,-3.22871 1.3429,-0.31323 2.68557,-0.63742 3.98875,-1.09348 0.24932,-0.0967 0.50138,-0.18668 0.74795,-0.29023 0.24277,-0.10195 0.94134,-0.46786 0.71949,-0.32603 -0.84959,0.54316 -1.74062,1.01863 -2.6078,1.53326 -0.21616,0.12828 0.43926,-0.24468 0.6547,-0.37417 0.20454,-0.12295 0.40377,-0.25452 0.6049,-0.38297 0.18695,-0.11941 0.37289,-0.24042 0.55933,-0.36062 0.81881,-0.56776 1.62276,-1.17747 2.24364,-1.96631 0.43151,-0.63639 0.69407,-1.29977 0.63649,-2.08541 0.0113,-1.07843 0.0273,-2.15685 0.0241,-3.23537 -0.008,-1.05319 -7.9e-4,-2.116 -0.19415,-3.15528 -0.26909,-1.15706 -0.75997,-2.24108 -1.41415,-3.23377 -0.89081,-1.34256 -1.88027,-2.61826 -3.06327,-3.7196 -1.17091,-0.98324 -2.27023,-1.5556 -3.74355,-1.98636 -1.82756,-0.57162 -3.68457,-1.04965 -5.48852,-1.69367 -1.41998,-0.51889 -2.91192,-1.01726 -3.93395,-2.19459 -0.65193,-0.97096 -0.99759,-2.06923 -1.21166,-3.21538 -0.19295,-1.10254 -0.31856,-2.21287 -0.47855,-3.32016 -0.0705,-0.61966 -0.23835,-1.20133 -0.39498,-1.80184 -0.22058,-1.04152 -0.36096,-2.09021 -0.29479,-3.15978 0.005,-1.30963 0.013,-2.62012 -0.0368,-3.92904 -0.0207,-0.3689 -0.0444,-0.60908 -0.35697,-0.84854 -0.50081,-0.4481 -1.03578,-0.87518 -1.70927,-1.01832 -0.8132,-0.0868 -1.63555,-0.0216 -2.4521,-0.0342 -0.97251,0.0207 -1.94999,0.0462 -2.90833,0.22951 -0.93736,0.2005 -1.86812,0.44342 -2.76554,0.7833 -1.0652,0.39686 -2.08184,0.89892 -3.08895,1.42473 5.8272,-3.4127 1.20897,-0.78259 0.007,0.25117 -0.77491,0.68182 -1.47785,1.43378 -2.1308,2.23264 -0.66948,0.80475 -1.24247,1.67642 -1.88789,2.50021 -1.411582,1.63557 -3.22665,2.52195 -5.193711,3.54321 -0.857771,0.44232 -1.758307,0.77962 -2.693479,1.0212 -1.128223,0.33903 -2.252827,0.68837 -3.357912,1.09822 -1.45324,0.50631 -2.934409,0.91946 -4.422,1.31213 -1.707229,0.49317 -3.405283,1.04219 -4.978604,1.88271 -1.363077,0.7194 -2.068665,1.10628 1.804874,-1.09965 0.2197,-0.12511 -0.428127,0.26907 -0.641622,0.40451 -0.604356,0.38338 -1.203672,0.77465 -1.780837,1.19841 -0.943895,0.73054 -1.878367,1.50715 -2.510181,2.53672 -0.514186,1.03769 -0.44205,1.89382 -0.430927,3.02513 -0.0064,1.2895 -0.0019,2.58073 0.0885,3.86767 0.107918,1.10127 0.29605,2.18163 0.76989,3.19301 0.371848,1.08467 0.723141,2.19446 0.757198,3.35019 0.0031,0.88649 0.01476,1.77306 0.006,2.65952 -0.03557,0.45108 -0.126513,0.85713 -0.383402,1.23997 -0.283848,0.54783 -0.562679,1.09409 -0.978332,1.55936 -0.435491,0.62168 -0.798396,1.32379 -0.923962,2.07711 -0.237863,1.31638 -0.112112,2.66033 -0.154538,3.99152 0.0016,1.51842 -0.01146,3.04127 0.132091,4.55446 0.163095,1.17926 0.491747,2.3038 1.070634,3.3526 0.677976,1.1846 1.43497,2.31274 2.472761,3.21855 0.906436,0.82767 1.837074,1.62127 2.800842,2.3817 0,0 -3.36964,2.06491 -3.36964,2.06491 z"
       inkscape:connector-curvature="0" />
    <path
       style="fill:none;stroke:#000000;stroke-width:0.26458332px;stroke-linecap:butt;stroke-linejoin:miter;stroke-opacity:1"
       d="m 24.21331,189.50355 1.330402,90.20123 162.042918,-0.79824"
       id="path6000"
       inkscape:connector-curvature="0" />
    <text
       xml:space="preserve"
       style="font-style:normal;font-weight:normal;font-size:10.58333302px;line-height:1.25;font-family:sans-serif;letter-spacing:0px;word-spacing:0px;fill:#000000;fill-opacity:1;stroke:none;stroke-width:0.26458332"
       x="11.175373"
       y="186.04449"
       id="text6004"><tspan
         sodipodi:role="line"
         id="tspan6002"
         x="11.175373"
         y="186.04449"
         style="stroke-width:0.26458332">$x_1$</tspan></text>
    <text
       xml:space="preserve"
       style="font-style:normal;font-weight:normal;font-size:10.58333302px;line-height:1.25;font-family:sans-serif;letter-spacing:0px;word-spacing:0px;fill:#000000;fill-opacity:1;stroke:none;stroke-width:0.26458332"
       x="188.38489"
       y="285.0264"
       id="text6008"><tspan
         sodipodi:role="line"
         id="tspan6006"
         x="188.38489"
         y="285.0264"
         style="stroke-width:0.26458332">$x_2$</tspan></text>
  </g>
</svg>
